<?xml version="1.0" encoding="UTF-8"?>
<svg id="_레이어_1" data-name="레이어 1" xmlns="http://www.w3.org/2000/svg" version="1.1" xmlns:xlink="http://www.w3.org/1999/xlink" viewBox="0 0 283.46 283.46">
  <defs>
    <style>
      .cls-1 {
        fill: url(#linear-gradient);
      }

      .cls-1, .cls-2, .cls-3, .cls-4, .cls-5, .cls-6, .cls-7 {
        stroke-width: 0px;
      }

      .cls-2 {
        fill: #1d2a5f;
      }

      .cls-3 {
        fill: #3bb0bd;
      }

      .cls-4 {
        fill: #8bc22d;
      }

      .cls-5 {
        fill: none;
      }

      .cls-6 {
        fill: #e65226;
      }

      .cls-8 {
        clip-path: url(#clippath);
      }

      .cls-7 {
        fill: #2e4068;
      }
    </style>
    <clipPath id="clippath">
      <path class="cls-5" d="M91.26,210.78c6.75,5.37,14.14,9.66,21.93,12.77,1.09.43,1.95.76,3,1.15,5.33,1.93,10.83,3.33,16.41,4.17l17.14-82.66s-40.54-19.89-39.3-26.09l-19.17,90.67Z"/>
    </clipPath>
    <linearGradient id="linear-gradient" x1="-154.28" y1="556.63" x2="-151.46" y2="556.63" gradientTransform="translate(19136.66 -818.32) rotate(-77.62) scale(32.99 -32.99)" gradientUnits="userSpaceOnUse">
      <stop offset="0" stop-color="#3bb0bd"/>
      <stop offset=".5" stop-color="#1d2a5f"/>
      <stop offset="1" stop-color="#1d2a5f"/>
    </linearGradient>
  </defs>
  <path class="cls-7" d="M132.23,102.38s0,0-.02,0h.02Z"/>
  <path class="cls-7" d="M110.44,120.1l.04-.16c0,.06-.03.12-.04.16"/>
  <g class="cls-8">
    <polygon class="cls-1" points="68.49 223.87 93.95 107.88 172.51 125.12 147.05 241.12 68.49 223.87"/>
  </g>
  <path class="cls-7" d="M110.57,119.47l-.09.47c.03-.17.09-.31.12-.47h-.02Z"/>
  <polygon class="cls-7" points="134 126.81 133.98 126.61 133.77 126.54 134 126.81"/>
  <path class="cls-7" d="M132.06,102.38h0s.11,0,.13,0h-.13Z"/>
  <path class="cls-6" d="M90.56,73.28c.45-.35.89-.75,1.29-1.15-.85.72-1.29,1.15-1.29,1.15"/>
  <path class="cls-2" d="M276.32,118.59c-3.78-21.37-12.87-42.12-27.5-60.16-9.16-2.56-17.87-4.62-26.16-6.21-83.28-16.02-123.37,13.58-130.81,19.92-.4.39-.84.8-1.29,1.15,37.8-30.67,93.34-24.9,124.02,12.92,4.13,5.08,7.57,10.47,10.39,16.08l-92.73.09h-.02s-.1,0-.14,0c-4.89,0-9.81,1.6-13.91,4.92-3.97,3.22-6.5,7.55-7.56,12.18-.03.15-.09.31-.12.47l-.04.16c-1.23,6.21.19,12.91,4.5,18.21,3.84,4.75,9.27,7.46,14.91,8.02,1.88.18,124.17.18,124.17.18h1.86s.01,0,.01,0c.85-.05,1.68-.11,2.55-.25,11.29-1.79,19.21-11.84,18.6-23.03-.21-1.55-.47-3.08-.72-4.64"/>
  <path class="cls-4" d="M62.78,39.05c-3.03,7.67-5.51,15.1-7.52,22.28-23.91,85.54,20.94,134.36,20.94,134.36l.26.06c-29.3-37.75-23.2-92.19,14.1-122.47,0,0,.44-.42,1.29-1.15,7.44-6.33,47.52-35.95,130.81-19.92,8.29,1.59,17,3.65,26.16,6.21C202.78,1.71,119.5-6.97,62.78,39.05"/>
  <path class="cls-3" d="M55.27,61.33c2.01-7.18,4.49-14.61,7.52-22.28C6.07,85.09-2.59,168.37,43.43,225.09c8.3,2.89,16.28,5.21,23.97,7.03,54.96,13.07,94.2.77,115.56-9.99l-.15-.2c-15.92,7.3-33.42,9.53-50.21,6.93-5.58-.85-11.09-2.25-16.41-4.17-1.05-.39-1.91-.72-3-1.15-7.78-3.11-15.18-7.4-21.93-12.77-4.92-3.91-9.49-8.39-13.6-13.48-.41-.51-.8-1.03-1.2-1.55l-.26-.06s-44.85-48.82-20.94-134.36"/>
  <path class="cls-2" d="M232.68,213.43l-15.65-19.27-12.13-14.94c-7.68-9.48-21.56-10.91-31.01-3.24-9.45,7.66-10.9,21.55-3.22,31.01l12.13,14.95.15.2c-21.35,10.76-60.59,23.06-115.56,9.99-7.68-1.82-15.67-4.14-23.97-7.03,14.63,18.04,33.06,31.19,53.18,39.3,1.56.61,3.12,1.22,4.69,1.77,35.51,12.75,75.77,10.04,109.86-9.27,6.33-3.59,12.45-7.71,18.3-12.46,9.44-7.66,10.89-21.54,3.22-31"/>
</svg>